<?xml version="1.0" encoding="UTF-8" standalone="no"?>
<!-- Created with Inkscape (http://www.inkscape.org/) -->

<svg
   version="1.1"
   id="svg2"
   width="551.01331"
   height="126.36"
   viewBox="0 0 551.01331 126.36"
   sodipodi:docname="Pri_Masters_Gold (1).eps"
   xmlns:inkscape="http://www.inkscape.org/namespaces/inkscape"
   xmlns:sodipodi="http://sodipodi.sourceforge.net/DTD/sodipodi-0.dtd"
   xmlns="http://www.w3.org/2000/svg"
   xmlns:svg="http://www.w3.org/2000/svg">
  <defs
     id="defs6" />
  <sodipodi:namedview
     id="namedview4"
     pagecolor="#ffffff"
     bordercolor="#000000"
     borderopacity="0.25"
     inkscape:showpageshadow="2"
     inkscape:pageopacity="0.0"
     inkscape:pagecheckerboard="0"
     inkscape:deskcolor="#d1d1d1" />
  <g
     id="g8"
     inkscape:groupmode="layer"
     inkscape:label="ink_ext_XXXXXX"
     transform="matrix(1.3333333,0,0,-1.3333333,0,126.36)">
    <g
       id="g10"
       transform="scale(0.1)">
      <path
         d="m 2202.36,675.953 c 1.76,-56.418 -42.54,-103.578 -98.96,-105.348 -56.42,-1.761 -103.58,42.54 -105.34,98.954 -0.07,2.129 -0.07,4.265 0,6.394 v 271.602 h -88.21 V 675.953 c 0,-105.129 85.23,-190.351 190.36,-190.351 105.13,0 190.34,85.222 190.34,190.351 v 271.602 h -88.19 V 675.953"
         style="fill:#b8ad7c;fill-opacity:1;fill-rule:nonzero;stroke:none"
         id="path12" />
      <path
         d="m 231.16,859.352 c 36.371,0.007 71.367,-13.907 97.797,-38.899 l 50.602,73.102 C 281.855,975.594 136.148,962.906 54.1016,865.203 -27.9375,767.504 -15.2422,621.797 82.4531,539.75 c 85.8989,-72.133 211.2069,-72.133 297.1059,0 l -50.602,73.004 c -57.383,-54.024 -147.695,-51.301 -201.719,6.086 -54.0192,57.383 -51.3005,147.687 6.082,201.711 26.481,24.926 61.469,38.804 97.84,38.801"
         style="fill:#b8ad7c;fill-opacity:1;fill-rule:nonzero;stroke:none"
         id="path14" />
      <path
         d="m 1225.96,637.152 -214.9,310.403 v 0 H 922.859 V 485.652 h 88.201 v 310.403 l 214.9,-310.403 v 0 0 h 88.09 v 461.903 h -88.09 V 637.152"
         style="fill:#b8ad7c;fill-opacity:1;fill-rule:nonzero;stroke:none"
         id="path16" />
      <path
         d="m 1431.55,947.555 v -88.203 h 136.31 v -373.7 h 88.2 v 373.7 h 136.29 v 88.203 h -360.8"
         style="fill:#b8ad7c;fill-opacity:1;fill-rule:nonzero;stroke:none"
         id="path18" />
      <path
         d="m 3864.06,947.555 v -88.203 h 48 v -373.7 h 88.2 v 461.903 h -136.2"
         style="fill:#b8ad7c;fill-opacity:1;fill-rule:nonzero;stroke:none"
         id="path20" />
      <path
         d="M 497.258,947.555 V 485.652 h 307.898 v 88.2 H 585.457 v 98.703 h 176.398 v 88.199 H 585.457 v 98.598 h 219.699 v 88.203 H 497.258"
         style="fill:#b8ad7c;fill-opacity:1;fill-rule:nonzero;stroke:none"
         id="path22" />
      <path
         d="m 2607.56,725.652 h -111.3 v 133.7 h 111.2 c 36.92,-1.426 65.69,-32.516 64.27,-69.434 -1.36,-34.918 -29.36,-62.914 -64.27,-64.266 z m 155,66.797 c -0.11,85.578 -69.43,154.938 -155,155.106 h -199.4 V 485.652 h 88.1 v 151.797 h 56.3 l 105,-151.797 h 104.9 l -110,158.496 c 65.26,19.93 109.91,80.071 110.1,148.301"
         style="fill:#b8ad7c;fill-opacity:1;fill-rule:nonzero;stroke:none"
         id="path24" />
      <path
         d="M 3166.56,947.555 3037.25,760.754 2907.96,947.555 H 2803.05 L 2993.16,672.953 V 485.652 h 88.19 v 187.301 l 190,274.602 h -104.79"
         style="fill:#b8ad7c;fill-opacity:1;fill-rule:nonzero;stroke:none"
         id="path26" />
      <path
         d="m 3739.16,716.555 2.29,3.297 c 45.05,66.882 27.35,157.613 -39.54,202.652 -66.88,45.039 -157.62,27.336 -202.66,-39.547 -16.24,-24.113 -24.91,-52.531 -24.9,-81.605 0,-1.801 0,-3.598 0,-5.399 h 88.41 c -0.11,1.797 -0.11,3.602 0,5.399 0,31.925 25.88,57.796 57.79,57.796 30.8,1.129 56.68,-22.921 57.81,-53.722 0.04,-1.36 0.04,-2.715 0,-4.074 -2.98,-16.11 -9.4,-31.387 -18.8,-44.797 -4.91,-7.203 -187.6,-271.004 -187.6,-271.004 h 303 v 88.301 h -134.7 l 98.9,142.703"
         style="fill:#b8ad7c;fill-opacity:1;fill-rule:nonzero;stroke:none"
         id="path28" />
      <path
         d="m 4078.56,532.953 h 12.3 c 5.09,0 7.59,2.301 7.59,6.899 0.15,1.886 -0.59,3.738 -2,5 -1.61,1.199 -3.58,1.796 -5.59,1.703 h -12.3 z m 24.7,-2.5 c -2.28,-2.57 -5.4,-4.242 -8.8,-4.699 l 13.99,-19.106 h -10 l -13.09,18.805 h -7 v -18.898 h -7.81 v 46.8 h 20 c 4.14,0.168 8.2,-1.183 11.41,-3.804 2.75,-2.582 4.28,-6.223 4.2,-10 0.29,-3.453 -0.75,-6.883 -2.9,-9.602 z m 3.8,-32.199 c 5.41,2.992 9.85,7.465 12.8,12.898 3.16,5.821 4.76,12.371 4.6,19 0.14,6.661 -1.45,13.239 -4.6,19.102 -3.01,5.391 -7.43,9.851 -12.8,12.898 -5.7,3.129 -12.11,4.719 -18.61,4.602 -6.52,0.105 -12.97,-1.481 -18.7,-4.602 -5.41,-2.992 -9.84,-7.464 -12.79,-12.898 -3.15,-5.863 -4.75,-12.441 -4.6,-19.102 -0.16,-6.629 1.43,-13.179 4.6,-19 2.89,-5.472 7.34,-9.964 12.79,-12.898 5.72,-3.195 12.17,-4.82 18.7,-4.699 6.47,-0.289 12.89,1.164 18.61,4.199 z m 4,70 c 6.58,-3.684 12.01,-9.117 15.69,-15.699 7.74,-14.289 7.74,-31.516 0,-45.801 -3.68,-6.555 -9.12,-11.953 -15.69,-15.602 -14.15,-7.464 -31.06,-7.464 -45.2,0 -6.59,3.582 -12.05,8.911 -15.8,15.403 -7.59,14.32 -7.59,31.472 0,45.797 3.79,6.714 9.41,12.226 16.2,15.902 14.18,7.328 31.02,7.328 45.19,0 h -0.39"
         style="fill:#b8ad7c;fill-opacity:1;fill-rule:nonzero;stroke:none"
         id="path30" />
      <path
         d="M 267.039,4.75781 H 225.215 V 183.594 L 172.516,30.5977 H 126.277 L 73.5742,183.594 V 4.75781 H 31.7539 V 242.754 H 93.6328 L 149.395,78.5352 205.156,242.754 h 61.883 V 4.75781"
         style="fill:#b8ad7c;fill-opacity:1;fill-rule:nonzero;stroke:none"
         id="path32" />
      <path
         d="m 387.586,39.0938 c 6.234,3.4062 11.273,8.164 15.129,14.2851 3.855,6.1133 5.781,13.1445 5.781,21.0742 -11.336,4.0821 -22.781,6.1211 -34.34,6.1211 -8.836,0 -15.98,-1.9804 -21.422,-5.9453 -5.437,-3.9766 -8.156,-10.0273 -8.156,-18.1953 0,-7.2539 2.152,-12.8125 6.457,-16.6602 4.305,-3.8554 10.086,-5.7812 17.34,-5.7812 6.574,0 12.973,1.6992 19.211,5.1016 z M 431.445,162.18 c 11.223,-12.024 16.832,-29.922 16.832,-53.723 V 4.75781 H 412.574 L 410.539,29.2383 C 404.641,19.9414 396.934,12.8047 387.418,7.8125 377.898,2.83203 368.039,0.332031 357.84,0.332031 c -9.524,0 -18.36,2.101559 -26.524,6.289059 -8.16,4.19921 -14.738,10.37111 -19.718,18.53521 -4.989,8.164 -7.481,17.9023 -7.481,29.2382 0,12.2461 3.004,22.4414 9.008,30.6055 6.004,8.1523 13.711,14.1602 23.121,18.016 9.406,3.847 19.434,5.785 30.09,5.785 14.73,0 28.781,-2.278 42.16,-6.809 v 5.442 c 0,24.707 -11.449,37.058 -34.34,37.058 -7.933,0 -15.867,-1.418 -23.797,-4.25 -7.941,-2.832 -15.078,-7.09 -21.421,-12.742 l -15.297,28.895 c 8.605,7.246 18.695,13.031 30.257,17.343 11.559,4.297 24.247,6.457 38.082,6.457 21.758,0 38.247,-6.007 49.465,-18.015"
         style="fill:#b8ad7c;fill-opacity:1;fill-rule:nonzero;stroke:none"
         id="path34" />
      <path
         d="M 508.965,6.11328 C 495.477,10.1953 484.766,15.6367 476.832,22.4336 l 12.922,29.918 c 6.57,-5.211 15.414,-9.461 26.523,-12.7422 11.102,-3.293 21.641,-4.9297 31.614,-4.9297 8.613,0 15.695,1.5195 21.25,4.5859 5.554,3.0586 8.332,7.875 8.332,14.4571 0,4.2929 -1.246,7.6953 -3.743,10.1953 -2.492,2.4883 -5.664,4.3047 -9.515,5.4375 -3.856,1.1328 -9.981,2.4922 -18.36,4.082 -14.734,3.1719 -26.41,6.4531 -35.019,9.8555 -8.617,3.4062 -15.301,8.2773 -20.063,14.6289 -4.761,6.3361 -7.14,14.9491 -7.14,25.8401 0,19.937 6.687,34.336 20.058,43.172 13.375,8.836 29.352,13.261 47.942,13.261 11.562,0 22.613,-1.648 33.148,-4.929 10.543,-3.293 19.895,-7.883 28.051,-13.774 L 599.57,131.57 c -5.89,4.309 -13.086,7.766 -21.586,10.371 -8.5,2.61 -17.171,3.918 -26.011,3.918 -8.836,0 -15.586,-1.648 -20.227,-4.929 -4.648,-3.293 -6.973,-7.992 -6.973,-14.114 0,-4.992 1.704,-8.671 5.102,-11.054 3.398,-2.371 9.969,-4.707 19.723,-6.961 15.859,-3.188 28.269,-6.352 37.226,-9.5237 8.953,-3.1757 16.262,-8.1054 21.934,-14.7968 5.656,-6.6875 8.496,-15.9258 8.496,-27.7032 0,-17.9101 -6.461,-31.8437 -19.383,-41.8281 C 584.953,4.98047 567.957,0 546.875,0 535.086,0 522.449,2.03125 508.965,6.11328"
         style="fill:#b8ad7c;fill-opacity:1;fill-rule:nonzero;stroke:none"
         id="path36" />
      <path
         d="M 767.199,16.9922 C 755.637,5.89063 740.34,0.332031 721.297,0.332031 c -19.5,0 -34.395,5.496099 -44.707,16.492169 -10.32,10.9961 -15.469,27.0313 -15.469,48.1094 v 75.1444 h -29.582 v 35.692 h 29.582 v 51.347 h 40.793 V 175.77 H 757 V 140.078 H 701.914 V 67.6563 c 0,-10.2071 1.984,-17.7344 5.953,-22.6055 3.965,-4.8828 9.914,-7.3164 17.852,-7.3164 9.293,0 17.679,3.8594 25.156,11.5625 l 16.324,-32.3047"
         style="fill:#b8ad7c;fill-opacity:1;fill-rule:nonzero;stroke:none"
         id="path38" />
      <path
         d="m 835.875,134.641 c -6.801,-6.809 -11.219,-16.321 -13.262,-28.567 h 75.485 c -0.68,11.563 -4.2,20.906 -10.543,28.047 -6.348,7.149 -14.961,10.715 -25.84,10.715 -10.43,0 -19.039,-3.402 -25.84,-10.195 z m 0.512,-88.5785 c 7.14,-7.1367 16.261,-10.7109 27.371,-10.7109 15.18,0 27.879,6.0039 38.078,18.0273 l 26.18,-26.1836 C 920.309,18.8086 910.957,12.2344 899.969,7.48047 888.973,2.71484 877.238,0.332031 864.777,0.332031 c -15.871,0 -30.093,3.800779 -42.672,11.394569 -12.578,7.5898 -22.5,18.2461 -29.75,31.957 -7.257,13.707 -10.878,29.4141 -10.878,47.0859 0,17.4535 3.453,32.9925 10.371,46.5825 6.91,13.605 16.543,24.14 28.902,31.625 12.348,7.476 26.457,11.218 42.328,11.218 15.86,0 29.352,-3.679 40.457,-11.047 11.106,-7.371 19.492,-17.058 25.164,-29.07 5.656,-12.019 8.496,-25.051 8.496,-39.101 0,-9.5239 -0.679,-17.9106 -2.039,-25.1567 H 822.613 c 2.043,-12.707 6.633,-22.6172 13.774,-29.7578"
         style="fill:#b8ad7c;fill-opacity:1;fill-rule:nonzero;stroke:none"
         id="path40" />
      <path
         d="m 1075.86,176.453 -10.55,-37.73 c -7.02,2.711 -13.25,4.07 -18.7,4.07 -10.19,0 -18.92,-3.906 -26.17,-11.73 -7.26,-7.821 -10.88,-18.418 -10.88,-31.7857 V 4.75781 H 969.434 V 175.77 h 36.046 l 2.04,-24.469 c 5.21,9.058 11.9,16.14 20.05,21.25 8.16,5.094 17.23,7.644 27.21,7.644 7.25,0 14.27,-1.25 21.08,-3.742"
         style="fill:#b8ad7c;fill-opacity:1;fill-rule:nonzero;stroke:none"
         id="path42" />
      <path
         d="m 1118.25,6.11328 c -13.49,4.08202 -24.2,9.52342 -32.14,16.32032 l 12.92,29.918 c 6.58,-5.211 15.42,-9.461 26.53,-12.7422 11.1,-3.293 21.64,-4.9297 31.61,-4.9297 8.62,0 15.7,1.5195 21.25,4.5859 5.56,3.0586 8.33,7.875 8.33,14.4571 0,4.2929 -1.24,7.6953 -3.74,10.1953 -2.49,2.4883 -5.66,4.3047 -9.51,5.4375 -3.86,1.1328 -9.98,2.4922 -18.36,4.082 -14.74,3.1719 -26.41,6.4531 -35.02,9.8555 -8.62,3.4062 -15.3,8.2773 -20.06,14.6289 -4.77,6.3361 -7.14,14.9491 -7.14,25.8401 0,19.937 6.68,34.336 20.06,43.172 13.37,8.836 29.35,13.261 47.93,13.261 11.57,0 22.62,-1.648 33.15,-4.929 10.55,-3.293 19.9,-7.883 28.06,-13.774 l -13.27,-29.922 c -5.89,4.309 -13.08,7.766 -21.58,10.371 -8.5,2.61 -17.18,3.918 -26.01,3.918 -8.84,0 -15.59,-1.648 -20.23,-4.929 -4.65,-3.293 -6.98,-7.992 -6.98,-14.114 0,-4.992 1.71,-8.671 5.11,-11.054 3.4,-2.371 9.97,-4.707 19.72,-6.961 15.86,-3.188 28.27,-6.352 37.22,-9.5237 8.96,-3.1757 16.27,-8.1054 21.94,-14.7968 5.66,-6.6875 8.49,-15.9258 8.49,-27.7032 0,-17.9101 -6.46,-31.8437 -19.38,-41.8281 C 1194.23,4.98047 1177.24,0 1156.16,0 c -11.79,0 -24.43,2.03125 -37.91,6.11328"
         style="fill:#b8ad7c;fill-opacity:1;fill-rule:nonzero;stroke:none"
         id="path44" />
    </g>
  </g>
</svg>
